<?xml version="1.0" encoding="UTF-8" standalone="no"?>
<!-- Created with Inkscape (http://www.inkscape.org/) -->

<svg
   width="500"
   height="500"
   viewBox="0 0 132.29167 132.29167"
   version="1.1"
   id="svg1"
   sodipodi:docname="flowerc12.svg"
   inkscape:export-filename="flowerd36.svg"
   inkscape:export-xdpi="96"
   inkscape:export-ydpi="96"
   xmlns:inkscape="http://www.inkscape.org/namespaces/inkscape"
   xmlns:sodipodi="http://sodipodi.sourceforge.net/DTD/sodipodi-0.dtd"
   xmlns:xlink="http://www.w3.org/1999/xlink"
   xmlns="http://www.w3.org/2000/svg"
   xmlns:svg="http://www.w3.org/2000/svg">
  <sodipodi:namedview
     id="namedview1"
     pagecolor="#ffffff"
     bordercolor="#111111"
     borderopacity="1"
     inkscape:showpageshadow="0"
     inkscape:pageopacity="0"
     inkscape:pagecheckerboard="1"
     inkscape:deskcolor="#d1d1d1"
     inkscape:document-units="mm"
     showguides="true" />
  <defs
     id="defs1">
    <linearGradient
       id="linearGradient1319"
       inkscape:collect="always">
      <stop
         style="stop-color:#c26521;stop-opacity:1;"
         offset="0"
         id="stop1319" />
      <stop
         style="stop-color:#ffd700;stop-opacity:0;"
         offset="1"
         id="stop1320" />
    </linearGradient>
    <radialGradient
       inkscape:collect="always"
       xlink:href="#linearGradient1319"
       id="radialGradient1320"
       cx="66.145836"
       cy="66.145836"
       fx="66.145836"
       fy="66.145836"
       r="24"
       gradientUnits="userSpaceOnUse"
       gradientTransform="matrix(1.5883792,0,0,1.5883792,-38.918841,-38.918843)" />
  </defs>
  <g
     inkscape:label="Livello 1"
     inkscape:groupmode="layer"
     id="layer1">
    <path
       sodipodi:type="star"
       style="fill:#d7aab4;fill-opacity:0.992175;stroke:#ffffff;stroke-width:1;stroke-linejoin:round;stroke-dasharray:none;stroke-opacity:0.674948"
       id="path1292"
       inkscape:flatsided="false"
       sodipodi:sides="36"
       sodipodi:cx="66.145828"
       sodipodi:cy="66.145828"
       sodipodi:r1="59.370796"
       sodipodi:r2="0.59370798"
       sodipodi:arg1="-1.5707963"
       sodipodi:arg2="-1.4835298"
       inkscape:rounded="-0.26"
       inkscape:randomized="0"
       d="m 66.14583,6.775032 c -15.282636,-9e-7 15.276225,60.111317 0.05174,58.779348 C 50.973092,64.22241 91.505919,10.330811 76.45546,7.6770081 61.405002,5.0232052 81.061384,69.527788 66.299491,65.57235 51.537598,61.616913 100.81282,15.5825 86.451838,10.35553 72.090858,5.1285593 80.247512,72.066468 66.39674,65.607746 52.545968,59.149025 109.06638,22.37053 95.831228,14.729211 82.596077,7.0878923 79.005168,74.425252 66.486365,65.659491 53.967563,56.893731 116.01582,30.488651 104.30864,20.665161 92.601464,10.841671 77.372099,76.532469 66.565643,65.726013 55.759188,54.919557 121.44999,39.690197 111.6265,27.983017 101.80301,16.275838 75.397925,78.324094 66.632165,65.805291 57.866406,53.286488 125.20376,49.695583 117.56245,36.460432 109.92113,23.22528 73.142631,79.745689 66.68391,65.894916 60.22519,52.044144 127.1631,60.200802 121.93613,45.839822 116.70916,31.478841 70.674743,80.754059 66.719306,65.992165 62.763869,51.230272 127.26845,70.886658 124.61465,55.836199 121.96085,40.78574 68.069246,81.318564 66.737277,66.094083 65.405308,50.869602 125.51662,81.428466 125.51662,66.14583 125.51663,50.863194 65.405307,81.422055 66.737277,66.197573 68.069247,50.973092 121.96085,91.505919 124.61465,76.45546 127.26845,61.405002 62.763868,81.061384 66.719306,66.299491 70.674744,51.537598 116.70916,100.81282 121.93613,86.451838 127.1631,72.090858 60.225189,80.247512 66.68391,66.39674 73.142632,52.545968 109.92113,109.06638 117.56245,95.831228 125.20376,82.596077 57.866405,79.005168 66.632165,66.486365 75.397926,53.967563 101.80301,116.01582 111.6265,104.30864 121.44999,92.601464 55.759187,77.372099 66.565643,66.565643 77.372099,55.759188 92.60146,121.44999 104.30864,111.6265 116.01582,101.80301 53.967562,75.397925 66.486365,66.632165 79.005168,57.866406 82.596073,125.20376 95.831225,117.56245 109.06638,109.92113 52.545968,73.142631 66.39674,66.68391 80.247512,60.22519 72.090854,127.1631 86.451835,121.93613 100.81282,116.70916 51.537598,70.674743 66.299491,66.719306 81.061384,62.763869 61.404998,127.26845 76.455457,124.61465 91.505916,121.96085 50.973092,68.069246 66.197573,66.737277 81.422055,65.405308 50.86319,125.51662 66.145827,125.51662 c 15.282636,1e-5 -15.276225,-60.111313 -0.05174,-58.779343 15.224481,1.33197 -25.308345,55.223573 -10.257887,57.877373 15.050459,2.6538 -4.605924,-61.850782 10.155969,-57.895344 14.761893,3.955438 -34.513327,49.989854 -20.152346,55.216824 14.36098,5.22697 6.204325,-61.710941 20.055097,-55.25222 13.850772,6.458722 -42.669638,43.23722 -29.434487,50.87854 C 49.69558,125.20376 53.286489,57.866405 65.805291,66.632165 78.324094,75.397926 16.275837,101.80301 27.983015,111.6265 39.690193,121.44999 54.919558,55.759187 65.726013,66.565643 76.532469,77.372099 10.84167,92.60146 20.665159,104.30864 30.488647,116.01582 56.893731,53.967562 65.659491,66.486365 74.425251,79.005168 7.0878924,82.596073 14.72921,95.831225 22.370527,109.06638 59.149025,52.545968 65.607746,66.39674 72.066467,80.247512 5.1285601,72.090854 10.355529,86.451835 15.582497,100.81282 61.616913,51.537598 65.57235,66.299491 69.527787,81.061384 5.0232066,61.404998 7.6770076,76.455457 10.330809,91.505916 64.22241,50.973092 65.55438,66.197573 66.886349,81.422055 6.775033,50.86319 6.775032,66.145827 6.7750311,81.428463 66.886349,50.869602 65.55438,66.094083 64.22241,81.318564 10.330811,40.785738 7.6770081,55.836196 5.0232052,70.886655 69.527788,51.230272 65.57235,65.992165 61.616913,80.754058 15.5825,31.478838 10.35553,45.839819 5.1285593,60.200799 72.066468,52.044144 65.607746,65.894916 59.149025,79.745688 22.37053,23.225278 14.729211,36.460429 7.0878923,49.69558 74.425252,53.286489 65.659491,65.805291 56.893731,78.324094 30.488651,16.275837 20.665161,27.983015 10.841671,39.690193 76.532469,54.919558 65.726013,65.726013 54.919557,76.532469 39.690197,10.84167 27.983017,20.665159 16.275838,30.488647 78.324094,56.893731 65.805291,65.659491 53.286488,74.425251 49.695583,7.0878924 36.460432,14.72921 23.22528,22.370527 79.745689,59.149025 65.894916,65.607746 52.044144,72.066467 60.200802,5.1285601 45.839822,10.355529 31.478841,15.582497 80.754059,61.616913 65.992165,65.57235 51.230272,69.527787 70.886658,5.0232066 55.836199,7.6770076 40.78574,10.330809 81.318564,64.22241 66.094083,65.55438 50.869602,66.886349 81.428466,6.775033 66.14583,6.775032 Z" />
    <path
       sodipodi:type="star"
       style="fill:#f4d7d7;fill-opacity:0.992175;stroke:#ffffff;stroke-width:1.04662;stroke-linejoin:round;stroke-dasharray:none;stroke-opacity:0.674948"
       id="path1292-9"
       inkscape:flatsided="false"
       sodipodi:sides="36"
       sodipodi:cx="66.145828"
       sodipodi:cy="66.145828"
       sodipodi:r1="54.548512"
       sodipodi:r2="0.59370798"
       sodipodi:arg1="-1.4769738"
       sodipodi:arg2="-1.3897073"
       inkscape:rounded="-0.26"
       inkscape:randomized="0"
       d="M 71.256202,11.837227 C 57.28906,10.522935 80.052201,68.088435 66.252756,65.561828 52.45331,63.035222 94.13588,17.269397 80.609154,13.549704 67.082428,9.8300101 79.503602,70.473739 66.352542,65.589269 53.201482,60.704798 102.19795,22.872361 89.522645,16.860287 76.847338,10.848213 78.549133,72.727541 66.446047,65.633619 54.34296,58.539697 109.1646,29.790168 97.725843,21.668387 86.287088,13.546606 77.217797,74.781361 66.53043,65.693533 55.843063,56.605705 114.82414,37.812623 104.9695,27.827911 95.114857,17.843199 75.550044,76.572795 66.603127,65.76719 57.65621,54.961585 119.00462,46.695968 111.03352,35.151706 103.06242,23.607443 73.596549,78.047411 66.66193,65.852352 59.72731,53.657292 121.579,56.170287 115.73364,43.417241 109.88828,30.664195 71.416668,79.160404 66.705051,65.94643 61.993434,52.732457 122.46908,65.947708 118.92707,52.373373 115.38506,38.799038 69.076634,79.877955 66.73118,66.046567 64.385725,52.21518 121.64781,75.731149 120.51677,61.747975 119.38572,47.7648 66.64755,80.178262 66.739523,66.149721 66.831497,52.121179 119.14014,85.223345 120.45443,71.256202 121.76872,57.28906 64.203221,80.052201 66.729828,66.252756 69.256435,52.45331 115.02226,94.13588 118.74195,80.609154 122.46165,67.082428 61.817918,79.503602 66.702388,66.352542 71.586858,53.201482 109.4193,102.19795 115.43137,89.522645 121.44344,76.847338 59.564115,78.549133 66.658037,66.446047 73.751959,54.34296 102.50149,109.1646 110.62327,97.725843 118.74505,86.287088 57.510295,77.217797 66.598123,66.53043 75.685951,55.843063 94.479033,114.82414 104.46375,104.9695 114.44846,95.114857 55.718861,75.550044 66.524466,66.603127 77.330072,57.65621 85.595688,119.00462 97.139951,111.03352 108.68421,103.06242 54.244245,73.596549 66.439305,66.66193 78.634365,59.72731 76.121369,121.579 88.874415,115.73364 101.62746,109.88828 53.131253,71.416668 66.345226,66.705051 79.5592,61.993434 66.343948,122.46908 79.918283,118.92707 93.492618,115.38506 52.413702,69.076634 66.245089,66.73118 80.076476,64.385725 56.560507,121.64781 70.543682,120.51677 84.526856,119.38572 52.113395,66.64755 66.141936,66.739523 80.170477,66.831497 47.068312,119.14014 61.035454,120.45443 75.002597,121.76872 52.239456,64.203221 66.038901,66.729828 79.838346,69.256435 38.155777,115.02226 51.682503,118.74195 65.209228,122.46165 52.788055,61.817918 65.939115,66.702388 79.090175,71.586858 30.093706,109.4193 42.769012,115.43137 55.444318,121.44344 53.742523,59.564115 65.84561,66.658037 77.948696,73.751959 23.12706,102.50149 34.565814,110.62327 46.004568,118.74505 55.07386,57.510295 65.761227,66.598123 76.448593,75.685951 17.467517,94.479033 27.322159,104.46375 37.1768,114.44846 56.741612,55.718861 65.688529,66.524466 74.635446,77.330072 13.287041,85.595688 21.258141,97.139951 29.229241,108.68421 58.695108,54.244245 65.629727,66.439305 72.564346,78.634365 10.712652,76.121369 16.558013,88.874415 22.403374,101.62746 60.874989,53.131253 65.586606,66.345226 70.298223,79.5592 9.8225717,66.343948 13.364585,79.918283 16.906599,93.492618 63.215022,52.413702 65.560477,66.245089 67.905931,80.076476 10.643845,56.560507 11.774889,70.543682 12.905933,84.526856 65.644106,52.113395 65.552133,66.141936 65.46016,80.170477 13.151519,47.068312 11.837227,61.035454 10.522935,75.002597 68.088435,52.239456 65.561828,66.038901 63.035222,79.838346 17.269397,38.155777 13.549704,51.682503 9.8300101,65.209228 70.473739,52.788055 65.589269,65.939115 60.704798,79.090175 22.872361,30.093706 16.860287,42.769012 10.848213,55.444318 72.727541,53.742523 65.633619,65.84561 58.539697,77.948696 29.790168,23.12706 21.668387,34.565814 13.546606,46.004568 74.781361,55.07386 65.693533,65.761227 56.605705,76.448593 37.812623,17.467517 27.827911,27.322159 17.843199,37.1768 76.572795,56.741612 65.76719,65.688529 54.961585,74.635446 46.695968,13.287041 35.151706,21.258141 23.607443,29.229241 78.047411,58.695108 65.852352,65.629727 53.657292,72.564346 56.170287,10.712652 43.417241,16.558013 30.664195,22.403374 79.160404,60.874989 65.94643,65.586606 52.732457,70.298223 65.947708,9.8225717 52.373373,13.364585 38.799038,16.906599 79.877955,63.215022 66.046567,65.560477 52.21518,67.905931 75.731149,10.643845 61.747975,11.774889 47.7648,12.905933 80.178262,65.644106 66.149721,65.552133 52.121179,65.46016 85.223345,13.151519 71.256202,11.837227 Z"
       transform="matrix(1.0368007,0,0,1.0368007,-2.4342128,-2.5435587)" />
    <circle
       style="fill:url(#radialGradient1320);fill-rule:evenodd;stroke-width:0.420258"
       id="path1293"
       cx="66.145828"
       cy="66.145828"
       r="38.121101" />
  </g>
</svg>
