<?xml version="1.0" encoding="UTF-8" standalone="no"?>
<!-- Created with Inkscape (http://www.inkscape.org/) -->

<svg
   width="500"
   height="500"
   viewBox="0 0 132.29167 132.29167"
   version="1.1"
   id="svg1"
   sodipodi:docname="flowerc12.svg"
   inkscape:export-filename="flowerc3.svg"
   inkscape:export-xdpi="96"
   inkscape:export-ydpi="96"
   xmlns:inkscape="http://www.inkscape.org/namespaces/inkscape"
   xmlns:sodipodi="http://sodipodi.sourceforge.net/DTD/sodipodi-0.dtd"
   xmlns="http://www.w3.org/2000/svg"
   xmlns:svg="http://www.w3.org/2000/svg">
  <sodipodi:namedview
     id="namedview1"
     pagecolor="#ffffff"
     bordercolor="#111111"
     borderopacity="1"
     inkscape:showpageshadow="0"
     inkscape:pageopacity="0"
     inkscape:pagecheckerboard="1"
     inkscape:deskcolor="#d1d1d1"
     inkscape:document-units="mm" />
  <defs
     id="defs1" />
  <g
     inkscape:label="Livello 1"
     inkscape:groupmode="layer"
     id="layer1">
    <path
       sodipodi:type="star"
       style="fill:#d0c4d4;fill-opacity:0.992157;stroke-width:0.938001;stroke-linejoin:round"
       id="path4"
       inkscape:flatsided="false"
       sodipodi:sides="4"
       sodipodi:cx="-21.000334"
       sodipodi:cy="44.693016"
       sodipodi:r1="55.037701"
       sodipodi:r2="6.4662561"
       sodipodi:arg1="-0.53721614"
       sodipodi:arg2="0.24818202"
       inkscape:rounded="-1.17"
       inkscape:randomized="0"
       d="M 26.284571,16.527678 C -4.0549873,-34.407381 -29.295418,103.75123 -14.7322,46.281401 -0.16898142,-11.188433 -43.770056,122.31748 7.1650038,91.977921 58.100063,61.638363 -80.058552,36.397932 -22.588718,50.96115 34.881115,65.524368 -98.624798,21.923294 -68.285239,72.858354 -37.94568,123.79341 -12.705249,-14.365202 -27.268468,43.104631 -41.831686,100.57446 1.7693881,-32.931448 -49.165671,-2.5918891 -100.10073,27.74767 38.057884,52.988101 -19.411949,38.424882 -76.881783,23.861664 56.62413,67.462738 26.284571,16.527678 Z"
       transform="matrix(1.1108526,0,0,1.1108526,89.474109,16.49848)" />
    <path
       sodipodi:type="star"
       style="fill:#ffffcc;fill-opacity:0.992157;stroke-width:0.938001;stroke-linejoin:round"
       id="path3"
       inkscape:flatsided="false"
       sodipodi:sides="8"
       sodipodi:cx="-14.000221"
       sodipodi:cy="74.308868"
       sodipodi:r1="15.624913"
       sodipodi:r2="2.1729913"
       sodipodi:arg1="-1.5363272"
       sodipodi:arg2="-1.1436281"
       inkscape:rounded="-1.17"
       inkscape:randomized="0"
       d="M -13.461751,58.693236 C -29.414226,58.14315 1.4276952,78.944097 -13.099962,72.331137 -27.627618,65.718176 8.313588,75.316778 -2.5775459,63.647705 -13.46868,51.978632 -6.3686388,88.495655 -11.965174,73.546981 -17.561709,58.598306 1.0653247,90.799814 1.6154107,74.847339 2.1654968,58.894864 -18.63545,89.736785 -12.022489,75.209128 -5.4095284,60.681471 -15.008131,96.622678 -3.3390581,85.731544 8.3300149,74.84041 -28.187008,81.940451 -13.238333,76.343916 1.7103407,70.747381 -30.491167,89.374414 -14.538692,89.9245 1.4137836,90.474586 -29.428138,69.673639 -14.900481,76.2866 c 14.52765668,6.612961 -21.413549,-2.985641 -10.522416,8.683432 10.891134,11.669073 3.791093,-24.84795 9.387628,-9.899276 5.596535,14.948674 -13.030498,-17.252833 -13.580584,-1.300358 -0.550086,15.952475 20.2508608,-14.889446 13.6379,-0.361789 -6.612961,14.527656 2.985642,-21.41355 -8.683431,-10.522416 -11.669073,10.891134 24.84794902,3.791093 9.899275,9.387628 -14.948674,5.596535 17.2528335,-13.030499 1.300358,-13.580585 z"
       transform="translate(80.146055,-8.1630351)" />
    <path
       sodipodi:type="star"
       style="fill:#fdc4d4;fill-opacity:0.992157;stroke-width:0.938001;stroke-linejoin:round"
       id="path2"
       inkscape:flatsided="false"
       sodipodi:sides="4"
       sodipodi:cx="66.145828"
       sodipodi:cy="66.145828"
       sodipodi:r1="50.530201"
       sodipodi:r2="6.1033845"
       sodipodi:arg1="-1.5707963"
       sodipodi:arg2="-1.1026133"
       inkscape:rounded="-1.17"
       inkscape:randomized="0"
       d="M 66.14583,15.615627 C 15.938885,32.107416 106.26724,98.06782 68.900076,60.699231 29.119051,20.91669 134.23316,119.59606 116.67603,66.14583 100.18424,15.938885 34.223837,106.26724 71.592426,68.900076 111.37497,29.119051 12.695593,134.23316 66.145827,116.67603 116.35277,100.18424 26.024416,34.223837 63.391581,71.592426 103.17261,111.37497 -1.9415047,12.695593 15.615627,66.145827 32.107416,116.35277 98.06782,26.024416 60.699231,63.391581 20.91669,103.17261 119.59606,-1.9415047 66.14583,15.615627 Z" />
    <path
       sodipodi:type="star"
       style="fill:#f2e3e8;fill-opacity:0.992157;stroke-width:0.938001;stroke-linejoin:round"
       id="path2-4"
       inkscape:flatsided="false"
       sodipodi:sides="4"
       sodipodi:cx="66.145828"
       sodipodi:cy="66.145828"
       sodipodi:r1="43.88644"
       sodipodi:r2="6.1033845"
       sodipodi:arg1="-0.74339162"
       sodipodi:arg2="-0.27520862"
       inkscape:rounded="-1.17"
       inkscape:randomized="0"
       d="M 98.454033,36.443984 C 59.103216,14.430044 70.125161,109.53735 72.019533,64.487247 74.059054,15.985363 72.147003,140.81995 95.847672,98.454033 117.86161,59.103216 22.754306,70.125161 67.804409,72.019533 116.30629,74.059054 -8.5282914,72.147003 33.837623,95.847672 73.188441,117.86161 62.166495,22.754306 60.272123,67.804409 58.232603,116.30629 60.144654,-8.5282914 36.443984,33.837623 14.430044,73.188441 109.53735,62.166495 64.487247,60.272123 15.985363,58.232603 140.81995,60.144654 98.454033,36.443984 Z"
       transform="rotate(90,66.145828,66.145834)" />
  </g>
</svg>
