<?xml version="1.0" encoding="UTF-8" standalone="no"?>
<!-- Created with Inkscape (http://www.inkscape.org/) -->

<svg
   width="500"
   height="500"
   viewBox="0 0 132.29167 132.29167"
   version="1.1"
   id="svg1"
   xmlns:inkscape="http://www.inkscape.org/namespaces/inkscape"
   xmlns:sodipodi="http://sodipodi.sourceforge.net/DTD/sodipodi-0.dtd"
   xmlns="http://www.w3.org/2000/svg"
   xmlns:svg="http://www.w3.org/2000/svg">
  <sodipodi:namedview
     id="namedview1"
     pagecolor="#ffffff"
     bordercolor="#111111"
     borderopacity="1"
     inkscape:showpageshadow="0"
     inkscape:pageopacity="0"
     inkscape:pagecheckerboard="1"
     inkscape:deskcolor="#d1d1d1"
     inkscape:document-units="mm" />
  <defs
     id="defs1" />
  <g
     inkscape:label="Livello 1"
     inkscape:groupmode="layer"
     id="layer1">
    <path
       sodipodi:type="star"
       style="fill:#233452;fill-opacity:0.992157;stroke-width:0.938001;stroke-linejoin:round"
       id="path17"
       inkscape:flatsided="false"
       sodipodi:sides="12"
       sodipodi:cx="66.145828"
       sodipodi:cy="66.145828"
       sodipodi:r1="9.4348269"
       sodipodi:r2="26.126854"
       sodipodi:arg1="-1.5707963"
       sodipodi:arg2="-1.2095818"
       inkscape:rounded="-10"
       inkscape:randomized="0"
       d="M 66.145828,56.711001 C -109.1766,39.22199 245.56947,87.302567 75.379337,41.704985 -87.720147,-1.9928609 207.99088,156.49891 70.863242,57.975029 -72.225931,-44.832114 210.95289,174.17992 86.362703,49.596191 -33.036671,-69.796995 143.8107,215.31642 74.316628,61.428415 1.8013407,-99.149769 137.53537,232.10963 91.928974,61.921859 48.222676,-101.17536 58.82029,234.16378 75.580655,66.145828 93.069666,-109.1766 44.989089,245.56947 90.586672,75.379337 134.28452,-87.720147 -24.207252,207.99088 74.316628,70.863242 177.12377,-72.225931 -41.888264,210.95289 82.695465,86.362703 202.08865,-33.036671 -83.024759,143.8107 70.863241,74.316628 231.44143,1.8013407 -99.817971,137.53537 70.369797,91.928974 233.46702,48.222676 -101.87213,58.82029 66.145828,75.580655 241.46826,93.069666 -113.27781,44.989089 56.91232,90.586672 220.0118,134.28452 -75.699221,-24.207252 61.428415,74.316628 204.51759,177.12377 -78.661232,-41.888264 45.928954,82.695465 165.32833,202.08865 -11.519048,-83.024759 57.975028,70.863241 130.49032,231.44143 -5.243718,-99.817971 40.362683,70.369797 84.06898,233.46702 73.471366,-101.87213 56.711001,66.145828 39.22199,241.46826 87.302567,-113.27781 41.704985,56.91232 -1.9928609,220.0118 156.49891,-75.699221 57.975029,61.428415 -44.832114,204.51759 174.17992,-78.661232 49.596191,45.928954 -69.796995,165.32833 215.31642,-11.519048 61.428415,57.975028 -99.149769,130.49032 232.10963,-5.243718 61.921859,40.362683 -101.17536,84.06898 234.16378,73.471366 66.145828,56.711001 Z" />
    <path
       sodipodi:type="star"
       style="fill:#ffffff;fill-opacity:0.992157;stroke-width:0.938001;stroke-linejoin:round"
       id="path18"
       inkscape:flatsided="false"
       sodipodi:sides="12"
       sodipodi:cx="-55.597672"
       sodipodi:cy="36.145832"
       sodipodi:r1="13.797142"
       sodipodi:r2="3.4786983"
       sodipodi:arg1="-1.4109406"
       sodipodi:arg2="-1.1491412"
       inkscape:rounded="-10"
       inkscape:randomized="0"
       d="m -53.401501,22.5246 c -103.421769,-16.6748421 94.809557,53.321408 -0.77244,10.447223 -95.581999,-42.8741839 88.517287,58.627485 7.288825,-7.524239 -81.228464,-66.151723 55.4467807,93.582476 -5.892564,8.661341 -61.33934,-84.92113 47.3444768,95.031535 10.074427,-2.871769 -37.27005,-97.903305 1.227085,108.768184 -9.433781,4.554659 -10.660865,-104.213529 -6.514248,105.971965 10.160595,2.550188 16.674842,-103.421774 -53.321408,94.809557 -10.447224,-0.77244 42.8741845,-95.581996 -58.627487,88.517287 7.524239,7.288825 C 21.2523,-36.370075 -138.4819,100.30517 -53.560765,38.965824 31.360366,-22.373521 -148.5923,86.3103 -50.688995,49.04025 47.214309,11.7702 -159.45718,50.267335 -55.243654,39.60647 48.969874,28.945604 -161.21562,33.092222 -57.793842,49.767064 45.627932,66.441906 -152.6034,-3.5543434 -57.021402,39.319841 c 95.581995,42.874184 -88.517288,-58.627485 -7.288825,7.524239 81.228462,66.15172 -55.446783,-93.582472 5.892564,-8.661341 61.3393445,84.921131 -47.344477,-95.031535 -10.074427,2.871769 37.27005,97.903302 -1.227085,-108.768188 9.433781,-4.554659 10.660865,104.213531 6.514248,-105.971961 -10.160595,-2.550188 -16.674842,103.421779 53.321408,-94.809556 10.447224,0.77244 -42.87418,95.581999 58.62748458,-88.517287 -7.524239,-7.288825 -66.151721,81.228464 93.582472,-55.44678 8.661341,5.892565 -84.921132,61.339344 95.031534,-47.344477 -2.87177,-10.074427 -97.903302,37.27005 108.768188,-1.227085 4.554659,9.43378 C -160.16522,43.34606 50.020273,39.199442 -53.401501,22.5246 Z"
       transform="rotate(11.537027,-143.20974,653.71046)" />
    <path
       sodipodi:type="star"
       style="fill:#66b3ff;fill-opacity:0.992157;stroke-width:0.938001;stroke-linejoin:round"
       id="path17-0"
       inkscape:flatsided="false"
       sodipodi:sides="12"
       sodipodi:cx="66.145828"
       sodipodi:cy="66.145828"
       sodipodi:r1="9.4348269"
       sodipodi:r2="26.126854"
       sodipodi:arg1="-1.5707963"
       sodipodi:arg2="-1.2095818"
       inkscape:rounded="-10"
       inkscape:randomized="0"
       d="M 66.145828,56.711001 C -109.1766,39.22199 245.56947,87.302567 75.379337,41.704985 -87.720147,-1.9928609 207.99088,156.49891 70.863242,57.975029 -72.225931,-44.832114 210.95289,174.17992 86.362703,49.596191 -33.036671,-69.796995 143.8107,215.31642 74.316628,61.428415 1.8013407,-99.149769 137.53537,232.10963 91.928974,61.921859 48.222676,-101.17536 58.82029,234.16378 75.580655,66.145828 93.069666,-109.1766 44.989089,245.56947 90.586672,75.379337 134.28452,-87.720147 -24.207252,207.99088 74.316628,70.863242 177.12377,-72.225931 -41.888264,210.95289 82.695465,86.362703 202.08865,-33.036671 -83.024759,143.8107 70.863241,74.316628 231.44143,1.8013407 -99.817971,137.53537 70.369797,91.928974 233.46702,48.222676 -101.87213,58.82029 66.145828,75.580655 241.46826,93.069666 -113.27781,44.989089 56.91232,90.586672 220.0118,134.28452 -75.699221,-24.207252 61.428415,74.316628 204.51759,177.12377 -78.661232,-41.888264 45.928954,82.695465 165.32833,202.08865 -11.519048,-83.024759 57.975028,70.863241 130.49032,231.44143 -5.243718,-99.817971 40.362683,70.369797 84.06898,233.46702 73.471366,-101.87213 56.711001,66.145828 39.22199,241.46826 87.302567,-113.27781 41.704985,56.91232 -1.9928609,220.0118 156.49891,-75.699221 57.975029,61.428415 -44.832114,204.51759 174.17992,-78.661232 49.596191,45.928954 -69.796995,165.32833 215.31642,-11.519048 61.428415,57.975028 -99.149769,130.49032 232.10963,-5.243718 61.921859,40.362683 -101.17536,84.06898 234.16378,73.471366 66.145828,56.711001 Z"
       transform="matrix(0.51047994,0,0,0.51047994,32.379715,32.379715)" />
  </g>
</svg>
