<?xml version="1.0" encoding="UTF-8" standalone="no"?>
<!-- Created with Inkscape (http://www.inkscape.org/) -->

<svg
   width="500"
   height="500"
   viewBox="0 0 132.29167 132.29167"
   version="1.1"
   id="svg1"
   sodipodi:docname="flowerc12.svg"
   inkscape:export-filename="flowerc3.png"
   inkscape:export-xdpi="96"
   inkscape:export-ydpi="96"
   xmlns:inkscape="http://www.inkscape.org/namespaces/inkscape"
   xmlns:sodipodi="http://sodipodi.sourceforge.net/DTD/sodipodi-0.dtd"
   xmlns="http://www.w3.org/2000/svg"
   xmlns:svg="http://www.w3.org/2000/svg">
  <sodipodi:namedview
     id="namedview1"
     pagecolor="#ffffff"
     bordercolor="#111111"
     borderopacity="1"
     inkscape:showpageshadow="0"
     inkscape:pageopacity="0"
     inkscape:pagecheckerboard="1"
     inkscape:deskcolor="#d1d1d1"
     inkscape:document-units="mm" />
  <defs
     id="defs1" />
  <g
     inkscape:label="Livello 1"
     inkscape:groupmode="layer"
     id="layer1">
    <path
       sodipodi:type="star"
       style="fill:#e27d5a;fill-opacity:0.992157;stroke-width:0.938001;stroke-linejoin:round"
       id="path1"
       inkscape:flatsided="false"
       sodipodi:sides="3"
       sodipodi:cx="66.145828"
       sodipodi:cy="66.145828"
       sodipodi:r1="56.565403"
       sodipodi:r2="10.094147"
       sodipodi:arg1="-1.5707963"
       sodipodi:arg2="-0.52359878"
       inkscape:rounded="-1"
       inkscape:randomized="0"
       d="m 66.14583,9.5804253 c -52.254733,2e-7 34.86915,96.7722547 8.741786,51.5183297 C 48.76025,15.844828 89.005537,139.68246 115.1329,94.428531 141.26027,49.174605 13.891095,76.239974 66.145828,76.239975 118.40056,76.239976 -8.9686154,49.174602 17.158752,94.428528 43.286118,139.68245 83.531408,15.84483 57.404041,61.098755 31.276673,106.35268 118.40056,9.580425 66.14583,9.5804253 Z"
       inkscape:transform-center-y="-14.141352" />
    <path
       sodipodi:type="star"
       style="fill:#d6ae45;fill-opacity:0.992157;stroke-width:0.938001;stroke-linejoin:round"
       id="path1-51"
       inkscape:flatsided="false"
       sodipodi:sides="3"
       sodipodi:cx="66.145828"
       sodipodi:cy="66.145828"
       sodipodi:r1="56.565403"
       sodipodi:r2="10.094147"
       sodipodi:arg1="-1.5707963"
       sodipodi:arg2="-0.52359878"
       inkscape:rounded="-1"
       inkscape:randomized="0"
       d="m 66.14583,9.5804253 c -52.254733,2e-7 34.86915,96.7722547 8.741786,51.5183297 C 48.76025,15.844828 89.005537,139.68246 115.1329,94.428531 141.26027,49.174605 13.891095,76.239974 66.145828,76.239975 118.40056,76.239976 -8.9686154,49.174602 17.158752,94.428528 43.286118,139.68245 83.531408,15.84483 57.404041,61.098755 31.276673,106.35268 118.40056,9.580425 66.14583,9.5804253 Z"
       transform="rotate(90,65.714517,65.714523)"
       inkscape:transform-center-x="-14.141352" />
    <path
       sodipodi:type="star"
       style="fill:#ffd700;fill-opacity:0.992157;stroke-width:0.938001;stroke-linejoin:round"
       id="path1-51-5"
       inkscape:flatsided="false"
       sodipodi:sides="3"
       sodipodi:cx="66.145828"
       sodipodi:cy="66.145828"
       sodipodi:r1="56.565403"
       sodipodi:r2="10.094147"
       sodipodi:arg1="-1.5707963"
       sodipodi:arg2="-0.52359878"
       inkscape:rounded="-1"
       inkscape:randomized="0"
       d="m 66.14583,9.5804253 c -52.254733,2e-7 34.86915,96.7722547 8.741786,51.5183297 C 48.76025,15.844828 89.005537,139.68246 115.1329,94.428531 141.26027,49.174605 13.891095,76.239974 66.145828,76.239975 118.40056,76.239976 -8.9686154,49.174602 17.158752,94.428528 43.286118,139.68245 83.531408,15.84483 57.404041,61.098755 31.276673,106.35268 118.40056,9.580425 66.14583,9.5804253 Z"
       transform="rotate(180,66.145827,66.791463)"
       inkscape:transform-center-y="14.141352" />
    <path
       sodipodi:type="star"
       style="fill:#000000;fill-opacity:0.992157;stroke-width:0.938001;stroke-linejoin:round"
       id="path1-5-3"
       inkscape:flatsided="false"
       sodipodi:sides="6"
       sodipodi:cx="66.145828"
       sodipodi:cy="66.145828"
       sodipodi:r1="79.431664"
       sodipodi:r2="26.44566"
       sodipodi:arg1="1.5707961"
       sodipodi:arg2="2.6179932"
       inkscape:rounded="-1.41"
       inkscape:randomized="0"
       d="M 66.145846,145.57749 C 151.6739,195.00238 -42.31097,29.989038 43.243224,79.368674 107.94916,116.71524 -2.6143665,31.151416 -2.6440012,105.86168 -2.6831843,204.64359 43.230128,-45.858909 43.243206,52.923014 43.253097,127.63328 62.071781,-10.899453 -2.6440192,26.430012 -88.21126,75.787037 151.68693,-9.7021191 66.14581,39.700169 c -64.6960413,37.363698 64.68617,-15.60521 0,-52.986004 C -19.382247,-62.710727 174.60263,102.30262 89.048432,52.922983 24.342499,15.576417 134.90602,101.14024 134.93566,26.429981 134.97484,-72.351936 89.061528,178.15057 89.04845,79.368643 89.038559,4.6583777 70.219876,143.19111 134.93568,105.86164 220.50292,56.50462 -19.39527,141.99378 66.145846,92.591488 c 64.696044,-37.363699 -64.6861651,15.605212 0,52.986002 z"
       transform="matrix(0.38169383,0,0,-0.38169383,40.898379,91.393288)"
       inkscape:transform-center-y="5.3976646" />
  </g>
</svg>
