<?xml version="1.0" encoding="UTF-8" standalone="no"?>
<!-- Created with Inkscape (http://www.inkscape.org/) -->

<svg
   width="300"
   height="300"
   viewBox="0 0 79.374999 79.375"
   version="1.1"
   id="svg1"
   inkscape:export-filename="mysquare.png"
   inkscape:export-xdpi="96"
   inkscape:export-ydpi="96"
   inkscape:version="1.3.2 (091e20e, 2023-11-25)"
   sodipodi:docname="mysquare.svg"
   xmlns:inkscape="http://www.inkscape.org/namespaces/inkscape"
   xmlns:sodipodi="http://sodipodi.sourceforge.net/DTD/sodipodi-0.dtd"
   xmlns="http://www.w3.org/2000/svg"
   xmlns:svg="http://www.w3.org/2000/svg">
  <sodipodi:namedview
     id="namedview1"
     pagecolor="#ffffff"
     bordercolor="#111111"
     borderopacity="1"
     inkscape:showpageshadow="0"
     inkscape:pageopacity="0"
     inkscape:pagecheckerboard="1"
     inkscape:deskcolor="#d1d1d1"
     inkscape:document-units="mm"
     inkscape:zoom="0.83534577"
     inkscape:cx="166.39816"
     inkscape:cy="96.36728"
     inkscape:window-width="1440"
     inkscape:window-height="636"
     inkscape:window-x="0"
     inkscape:window-y="25"
     inkscape:window-maximized="0"
     inkscape:current-layer="layer1" />
  <defs
     id="defs1" />
  <g
     inkscape:label="Livello 1"
     inkscape:groupmode="layer"
     id="layer1">
    <path
       d="m 38.641052,79.300069 c 0.600957,-0.05707 1.046448,-0.13569 1.046448,-0.238228 V 40.000659 c 0,-0.173538 -1.109187,-0.313159 -2.48667,-0.313159 H 2.4866699 C 1.1091869,39.6875 0,39.827121 0,40.000659 v 0.120406 a 39.718441,39.6875 0 0 0 38.641052,39.179004 z"
       style="fill:#fdcef2;fill-opacity:1;fill-rule:evenodd;stroke-width:0.511561"
       id="path10" />
    <path
       d="m 79.375,40.121065 v -0.120406 c 0,-0.173538 -1.109187,-0.313159 -2.48667,-0.313159 H 42.17417 c -1.377483,0 -2.48667,0.139621 -2.48667,0.313159 v 39.061182 c 0,0.102538 0.445491,0.181153 1.046448,0.238228 A 39.718441,39.6875 0 0 0 79.375,40.121065 Z"
       style="fill:#109684;fill-opacity:1;fill-rule:evenodd;stroke-width:0.511561"
       id="path9" />
    <path
       d="M 39.6875,0.31315918 V 39.374341 c 0,0.173538 1.109187,0.313159 2.48667,0.313159 h 34.71416 c 1.377483,0 2.48667,-0.139621 2.48667,-0.313159 V 38.431246 A 39.718441,39.6875 0 0 0 41.373702,0.04134115 C 40.437371,0.08620004 39.6875,0.1790819 39.6875,0.31315918 Z"
       style="fill:#66b3ff;fill-opacity:1;fill-rule:evenodd;stroke-width:0.511561"
       id="path8" />
    <path
       d="M 38.641052,0.07493083 A 39.718441,39.6875 0 0 0 0,39.253935 v 0.120406 C 0,39.547879 1.1091869,39.6875 2.4866699,39.6875 H 37.20083 c 1.377483,0 2.48667,-0.139621 2.48667,-0.313159 V 0.31315918 c 0,-0.10253796 -0.445491,-0.18115351 -1.046448,-0.23822835 z"
       style="fill:#fde6a1;fill-opacity:0.992157;fill-rule:evenodd;stroke-width:0.511561"
       id="path7" />
  </g>
</svg>
