<?xml version="1.0" encoding="UTF-8" standalone="no"?>
<!-- Created with Inkscape (http://www.inkscape.org/) -->

<svg
   width="300"
   height="300"
   viewBox="0 0 79.374999 79.375"
   version="1.1"
   id="svg1"
   inkscape:export-filename="mysquare.png"
   inkscape:export-xdpi="96"
   inkscape:export-ydpi="96"
   inkscape:version="1.3.2 (091e20e, 2023-11-25)"
   sodipodi:docname="mysquarelogo.svg"
   xmlns:inkscape="http://www.inkscape.org/namespaces/inkscape"
   xmlns:sodipodi="http://sodipodi.sourceforge.net/DTD/sodipodi-0.dtd"
   xmlns:xlink="http://www.w3.org/1999/xlink"
   xmlns="http://www.w3.org/2000/svg"
   xmlns:svg="http://www.w3.org/2000/svg">
  <sodipodi:namedview
     id="namedview1"
     pagecolor="#ffffff"
     bordercolor="#111111"
     borderopacity="1"
     inkscape:showpageshadow="0"
     inkscape:pageopacity="0"
     inkscape:pagecheckerboard="1"
     inkscape:deskcolor="#d1d1d1"
     inkscape:document-units="mm"
     inkscape:zoom="0.73020833"
     inkscape:cx="134.20828"
     inkscape:cy="30.813124"
     inkscape:window-width="1440"
     inkscape:window-height="636"
     inkscape:window-x="0"
     inkscape:window-y="25"
     inkscape:window-maximized="0"
     inkscape:current-layer="layer1" />
  <defs
     id="defs1">
    <linearGradient
       id="linearGradient36"
       inkscape:collect="always">
      <stop
         style="stop-color:#6614ff;stop-opacity:1;"
         offset="0"
         id="stop36" />
      <stop
         style="stop-color:#66b3ff;stop-opacity:0;"
         offset="1"
         id="stop37" />
    </linearGradient>
    <clipPath
       clipPathUnits="userSpaceOnUse"
       id="clipPath61">
      <path
         id="path5"
         style="stroke-width:0.1;stroke-linecap:square;paint-order:markers fill stroke;stop-color:#000000"
         d="m 438.25066,553.76374 859.87054,0 v 201.39554 l -859.87054,0 z"
         sodipodi:nodetypes="ccccc" />
    </clipPath>
    <clipPath
       clipPathUnits="userSpaceOnUse"
       id="clipPath5">
      <rect
         style="fill:#000000;stroke:#000000;stroke-width:0;stroke-linejoin:bevel;paint-order:stroke markers fill;stop-color:#000000"
         id="rect5-4"
         width="20"
         height="200"
         x="530"
         y="595" />
    </clipPath>
    <radialGradient
       inkscape:collect="always"
       xlink:href="#linearGradient36"
       id="radialGradient37"
       cx="59.687287"
       cy="39.6875"
       fx="59.687287"
       fy="39.6875"
       r="17.605287"
       gradientTransform="matrix(1,0,0,1.6539352,0,-25.953055)"
       gradientUnits="userSpaceOnUse" />
  </defs>
  <g
     inkscape:label="Livello 1"
     inkscape:groupmode="layer"
     id="layer1">
    <rect
       style="fill:#fde5a1;fill-opacity:0.99215686;stroke:none;stroke-width:0.938001;stroke-linejoin:round"
       id="rect2"
       width="39.6875"
       height="39.6875"
       x="0"
       y="6.4074993e-07"
       rx="2.486434"
       ry="0.31324562" />
    <rect
       style="fill:#66b3ff;fill-opacity:1;stroke:none;stroke-width:0.938001;stroke-linejoin:round"
       id="rect3"
       width="39.6875"
       height="39.6875"
       x="39.6875"
       y="6.4074993e-07"
       rx="2.486434"
       ry="0.31324562" />
    <rect
       style="fill:#fdcef2;fill-opacity:1;stroke:none;stroke-width:0.938001;stroke-linejoin:round"
       id="rect5"
       width="39.6875"
       height="39.6875"
       x="0"
       y="39.6875"
       rx="2.486434"
       ry="0.31324562" />
    <rect
       style="fill:#0b9a87;fill-opacity:0.97647059;stroke:none;stroke-width:0.938001;stroke-linejoin:round"
       id="rect6"
       width="39.6875"
       height="39.6875"
       x="39.6875"
       y="39.6875"
       rx="2.486434"
       ry="0.31324562" />
    <path
       style="fill:url(#radialGradient37);fill-opacity:1;fill-rule:nonzero;stroke:#233452;stroke-width:3.169;stroke-linecap:round;stroke-linejoin:round;stroke-dasharray:none;stroke-opacity:1"
       id="path1"
       d="m 43.666376,67.224511 c 0.860658,-1.155238 1.429618,-2.500725 2.030145,-3.800907 1.928426,-4.423228 3.372704,-9.035529 4.773844,-13.646419 1.651992,-5.412996 2.934974,-10.92364 4.014799,-16.475891 0.764143,-4.011462 1.364824,-8.052956 1.442982,-12.139457 0.01875,-2.200948 -0.304282,-4.351097 -1.389683,-6.279998 -0.787093,-1.222917 -1.944596,-1.993822 -3.277531,-2.506425 -1.064503,-0.35365 -2.130422,-0.269684 -3.173703,0.09138 -0.767233,0.312231 -1.300984,0.873538 -1.655824,1.607229 -0.310857,0.705795 -0.219313,1.304306 0.267444,1.883537 0.839354,0.716075 1.961306,0.811978 3.018175,0.868331 1.78072,0.01362 3.523975,-0.392101 5.252682,-0.771373 2.359999,-0.555994 4.751807,-0.897387 7.172807,-0.997429 2.288442,-0.112293 4.453628,0.390556 6.501549,1.379601 1.6702,0.914865 2.77198,2.163802 3.559123,3.875192 0.645014,1.627996 0.443624,3.284048 0.0034,4.927624 -0.586499,1.977602 -1.749181,3.685766 -3.002092,5.295757 -1.770978,2.132152 -3.996374,3.79815 -6.243965,5.389514 -2.543383,1.750885 -5.280298,3.192145 -8.060306,4.524832 -1.984772,0.954138 -4.050429,1.71385 -6.16762,2.312151 -1.126651,0.28811 -2.28224,0.578352 -3.449606,0.428172 -0.682509,-0.122738 -1.036748,-0.496433 -1.061368,-1.181888 0.11025,-1.026159 0.669541,-1.890698 1.270397,-2.69872 0.727359,-0.936006 1.65109,-1.656427 2.673647,-2.239653 0.943974,-0.508655 1.959815,-0.806079 3.030766,-0.821215 1.188974,0.04178 2.111795,0.642464 2.961078,1.420423 1.244257,1.287473 2.112895,2.867579 2.940125,4.439753 1.005579,1.968466 1.835466,4.019921 2.640294,6.076617 0.817548,2.116313 1.612275,4.241325 2.431062,6.357165 0.658676,1.660622 1.374511,3.300192 2.180857,4.894598 0.545735,1.065364 1.168279,2.084031 1.948824,2.992882 0.647739,0.716547 1.257867,0.995486 2.214352,1.011922 1.24649,-0.08818 2.321958,-0.696231 3.324939,-1.394335 1.19085,-0.91403 2.005634,-2.144669 2.684208,-3.461479 0.608869,-1.276361 0.951198,-2.643388 1.140827,-4.038153 0.109841,-1.00688 0.03297,-2.008815 -0.365953,-2.942857 -0.326495,-0.650525 -0.895232,-1.009884 -1.549619,-1.269038 -0.516671,-0.173144 -1.058151,-0.271464 -1.603238,-0.267828 -0.320541,0.01167 -0.613129,0.08152 -0.861691,0.287267 -0.178312,0.188233 -0.225188,0.431537 -0.258595,0.679227 -0.01889,0.177132 -0.02312,0.355168 -0.02744,0.533074 -5.3e-5,0.0033 0.04485,0.004 0.04492,7.51e-4 v 0 c 0.0034,-0.176815 0.0041,-0.353918 0.01948,-0.530226 0.02435,-0.244548 0.06413,-0.479783 0.241615,-0.664289 0.242512,-0.189581 0.522403,-0.248682 0.828325,-0.253937 0.535975,0.0064 1.067887,0.108687 1.575143,0.281163 0.636711,0.250194 1.192772,0.59626 1.501262,1.234695 0.372973,0.922382 0.423763,1.909932 0.305038,2.893771 -0.209124,1.375703 -0.552195,2.724887 -1.153517,3.986991 -0.671787,1.292149 -1.469285,2.506827 -2.633128,3.413816 -0.96123,0.680199 -1.991395,1.272951 -3.184795,1.405657 -0.943205,0.0048 -1.521235,-0.245653 -2.148654,-0.968304 -0.7514,-0.916916 -1.344556,-1.93977 -1.870937,-3.000446 -0.775542,-1.601295 -1.473257,-3.240303 -2.109854,-4.901652 -0.800642,-2.123071 -1.576007,-4.255729 -2.40599,-6.36768 -0.817689,-2.061158 -1.662763,-4.11647 -2.681821,-6.087861 -0.85316,-1.582906 -1.750395,-3.173018 -3.042005,-4.446545 -0.90094,-0.797064 -1.876379,-1.403801 -3.117172,-1.432855 -1.089164,0.02371 -2.126051,0.310922 -3.08673,0.831617 -1.036496,0.593561 -1.974747,1.320115 -2.708202,2.274528 -0.605544,0.829566 -1.159882,1.721565 -1.227002,2.774706 0.0499,0.703618 0.405079,1.109785 1.105174,1.26753 1.201429,0.210121 2.410306,-0.05312 3.581929,-0.328436 2.151043,-0.559356 4.252142,-1.287259 6.271868,-2.220427 2.814757,-1.308146 5.573293,-2.751961 8.118644,-4.53898 2.253316,-1.620634 4.4653,-3.336843 6.215974,-5.513708 1.2527,-1.642979 2.407538,-3.382939 2.979613,-5.392327 0.432821,-1.684274 0.632371,-3.380325 -0.0215,-5.045146 -0.795072,-1.750451 -1.910179,-3.046987 -3.602225,-4.003828 -2.115712,-1.054607 -4.354839,-1.592494 -6.735014,-1.470936 -2.432189,0.103607 -4.83014,0.464346 -7.191217,1.065969 -1.678954,0.388152 -3.369426,0.811541 -5.102342,0.838474 -1.03728,-0.0313 -2.147159,-0.08987 -2.996489,-0.758032 -0.482576,-0.55261 -0.559768,-1.125177 -0.253713,-1.805197 0.350212,-0.714473 0.873626,-1.254556 1.629564,-1.544217 1.005025,-0.326264 2.019969,-0.407052 3.03859,-0.05994 1.296419,0.506797 2.423792,1.258059 3.178273,2.460043 1.029046,1.912527 1.269425,4.033702 1.191962,6.188943 -0.190342,4.060798 -0.890201,8.064024 -1.694511,12.044696 -1.135344,5.522854 -2.437678,11.010135 -4.047767,16.416031 -1.359438,4.602907 -2.762339,9.196089 -4.423565,13.700852 -0.527662,1.320137 -1.028822,2.663593 -1.736306,3.901108 -6.26e-4,0.0014 0.01659,0.01167 0.01732,0.0105 z" />
    <path
       style="fill:#c8371f;fill-opacity:1;fill-rule:nonzero;stroke:#233452;stroke-width:3.16947;stroke-linecap:round;stroke-linejoin:round;stroke-dasharray:none;stroke-opacity:1"
       id="path1-1"
       d="m 35.70844,12.1522 c -0.860658,1.155237 -1.429625,2.500723 -2.030145,3.800906 -1.928423,4.423227 -3.372709,9.035522 -4.773843,13.646418 -1.651993,5.412995 -2.934972,10.923641 -4.014798,16.475894 -0.764144,4.011458 -1.364825,8.052954 -1.44299,12.139455 -0.01875,2.200945 0.304289,4.351094 1.38969,6.280004 0.787093,1.222915 1.944589,1.993823 3.277532,2.506428 1.064504,0.353644 2.130419,0.269683 3.1737,-0.09137 0.767234,-0.312228 1.30098,-0.873541 1.655818,-1.607232 0.310865,-0.705793 0.21932,-1.304309 -0.267437,-1.88354 -0.839354,-0.716078 -1.961312,-0.811978 -3.018173,-0.868333 -1.780721,-0.01358 -3.523975,0.392104 -5.25269,0.771376 -2.359998,0.555991 -4.7518,0.897382 -7.172807,0.997431 -2.288443,0.11228 -4.453627,-0.390561 -6.501548,-1.379603 -1.6701954,-0.914872 -2.7719764,-2.163805 -3.5591234,-3.875195 -0.645013,-1.628 -0.443624,-3.284047 -0.0034,-4.927624 0.5865,-1.977606 1.749182,-3.685766 3.0020924,-5.295754 1.770975,-2.13216 3.996373,-3.798158 6.24397,-5.38952 2.543383,-1.750889 5.280299,-3.192146 8.060299,-4.524832 1.984773,-0.954138 4.050436,-1.713853 6.167625,-2.312148 1.126651,-0.288111 2.282239,-0.578352 3.449609,-0.428174 0.682506,0.122738 1.036745,0.496433 1.061365,1.181888 -0.110238,1.026158 -0.669539,1.890694 -1.270395,2.698719 -0.727359,0.936005 -1.65109,1.656426 -2.673656,2.239654 -0.943974,0.508652 -1.959814,0.806077 -3.030756,0.821216 -1.188972,-0.04181 -2.111794,-0.642473 -2.961084,-1.42043 -1.244257,-1.287471 -2.112893,-2.867578 -2.940125,-4.439749 -1.005573,-1.968472 -1.83546,-4.019926 -2.640289,-6.076619 -0.817547,-2.116317 -1.612282,-4.241328 -2.431069,-6.35717 -0.658676,-1.660626 -1.374503,-3.300191 -2.180856,-4.894594 -0.545729,-1.065366 -1.168273,-2.084033 -1.948818,-2.992881 -0.647738,-0.716549 -1.257874,-0.995489 -2.214352,-1.011923 -1.2464974,0.08817 -2.3219584,0.696231 -3.3249394,1.394336 -1.190857,0.914027 -2.005632,2.144664 -2.684208,3.461476 -0.608875,1.276358 -0.951198,2.64339 -1.140833,4.038151 -0.109838,1.006878 -0.03298,2.008816 0.365952,2.942858 0.326502,0.650522 0.895233,1.009884 1.549626,1.269041 0.516664,0.17314 1.058144,0.271461 1.603232,0.267826 0.320541,-0.01143 0.613136,-0.0815 0.86169,-0.287269 0.178313,-0.188232 0.225187,-0.431532 0.258602,-0.679224 0.01888,-0.177131 0.02313,-0.355168 0.02745,-0.533078 5.4e-5,-0.0034 -0.04484,-0.0041 -0.04491,-6.25e-4 v 0 c -0.0034,0.176815 -0.0041,0.353921 -0.01949,0.530225 -0.02435,0.244553 -0.06413,0.479783 -0.241622,0.664292 -0.242511,0.189581 -0.522396,0.248683 -0.828317,0.253935 -0.535977,-0.0068 -1.067894,-0.108686 -1.575144,-0.281165 -0.636712,-0.250193 -1.192778,-0.596259 -1.501268,-1.234689 -0.372972,-0.92243 -0.423758,-1.909981 -0.305031,-2.893818 0.209124,-1.375704 0.552188,-2.724893 1.15351,-3.986994 0.671785,-1.292152 1.46929,-2.506826 2.633125,-3.413813 0.961232,-0.680202 1.991397,-1.272952 3.1847964,-1.405659 0.943206,-0.0047 1.521236,0.245654 2.148656,0.968306 0.751406,0.916914 1.344562,1.939768 1.870936,3.00044 0.775548,1.601296 1.473256,3.240308 2.109861,4.901655 0.80064,2.123071 1.576006,4.255731 2.405983,6.367682 0.817694,2.061151 1.662763,4.11647 2.68182,6.087859 0.853167,1.582905 1.750396,3.17302 3.042014,4.446546 0.900937,0.797068 1.876377,1.403796 3.11717,1.432854 1.089158,-0.02367 2.12605,-0.310924 3.08673,-0.83162 1.036497,-0.593561 1.974745,-1.320109 2.708196,-2.274523 0.60555,-0.829571 1.159882,-1.721568 1.227007,-2.774708 -0.0499,-0.703621 -0.405078,-1.109785 -1.105171,-1.267529 -1.201439,-0.210123 -2.410307,0.05314 -3.581931,0.328437 -2.151048,0.559349 -4.252142,1.287255 -6.271875,2.220426 -2.814756,1.308141 -5.573291,2.751962 -8.118637,4.538981 -2.253322,1.620629 -4.465307,3.336841 -6.2159724,5.513707 -1.252708,1.642976 -2.407547,3.382939 -2.979623,5.392328 -0.432807,1.684269 -0.632362,3.380324 0.02151,5.045144 0.795038,1.750449 1.910144,3.046985 3.6021804,4.003829 2.115721,1.054609 4.354848,1.5925 6.735017,1.470942 2.432189,-0.1036 4.83014,-0.464354 7.191218,-1.065973 1.67896,-0.388151 3.369434,-0.811544 5.102349,-0.838479 1.037278,0.03129 2.147158,0.08988 2.996488,0.758034 0.482575,0.552608 0.559763,1.125182 0.253712,1.805201 -0.350212,0.714479 -0.873625,1.254557 -1.629564,1.544219 -1.005025,0.326267 -2.019968,0.407055 -3.038587,0.05994 -1.296421,-0.506795 -2.423793,-1.258053 -3.178274,-2.460044 -1.029052,-1.912529 -1.269433,-4.033708 -1.191963,-6.188945 0.190337,-4.060803 0.890196,-8.064028 1.694512,-12.044697 1.135338,-5.522856 2.437678,-11.010134 4.04776,-16.416031 1.359437,-4.602909 2.762336,-9.196088 4.42357,-13.700851 0.527662,-1.320137 1.028822,-2.663593 1.73631,-3.901109 6.24e-4,-0.0014 -0.01659,-0.01167 -0.01734,-0.01045 z" />
  </g>
</svg>
